<svg
    xmlns="http://www.w3.org/2000/svg"
    viewBox="0 0 24 24"
    id="vector">
    <path
        id="path_9"
        d="M 19.35 10.04 C 18.67 6.59 15.64 4 12 4 C 9.11 4 6.6 5.64 5.35 8.04 C 2.34 8.36 0 10.91 0 14 C 0 17.31 2.69 20 6 20 L 19 20 C 21.76 20 24 17.76 24 15 C 24 12.36 21.95 10.22 19.35 10.04 Z M 19 18 L 6 18 C 3.79 18 2 16.21 2 14 C 2 11.79 3.79 10 6 10 L 6.71 10 C 7.37 7.69 9.48 6 12 6 C 15.04 6 17.5 8.46 17.5 11.5 L 17.5 12 L 19 12 C 20.66 12 22 13.34 22 15 C 22 16.66 20.66 18 19 18 Z"
        fill="#000000"/>
</svg>
