<svg
    xmlns="http://www.w3.org/2000/svg"
    viewBox="0 0 100 100"
    id="vector">
    <path
        id="path_2"
        d="M 29.304 82.9 C 29.304 82.91 29.3 82.92 29.3 82.929 L 29.366 83.7 C 29.366 83.702 29.366 83.702 29.366 83.702 C 29.367 83.706 29.366 83.708 29.366 83.71 L 29.45 84.48 C 29.45 84.48 29.451 84.482 29.452 84.482 C 29.452 84.484 29.451 84.486 29.451 84.488 L 29.553 85.256 C 29.553 85.258 29.554 85.258 29.554 85.26 C 29.555 85.262 29.554 85.262 29.554 85.264 L 29.675 86.03 L 29.677 86.032 C 29.677 86.034 29.677 86.036 29.677 86.038 L 29.816 86.8 C 29.816 86.802 29.818 86.802 29.818 86.804 C 29.818 86.804 29.817 86.806 29.818 86.808 L 29.974 87.568 C 29.974 87.568 29.975 87.57 29.976 87.57 C 29.976 87.572 29.975 87.574 29.976 87.576 L 30.152 88.332 C 30.152 88.332 30.152 88.332 30.153 88.334 C 30.153 88.336 30.152 88.336 30.153 88.338 L 30.344 89.088 C 30.345 89.09 30.346 89.09 30.346 89.092 C 30.347 89.094 30.346 89.096 30.347 89.098 L 30.558 89.842 C 30.558 89.844 30.558 89.844 30.559 89.844 C 30.56 89.846 30.559 89.848 30.56 89.85 L 30.789 90.592 C 30.789 90.592 30.79 90.594 30.791 90.594 C 30.791 90.596 30.791 90.598 30.791 90.598 L 31.036 91.332 C 31.037 91.332 31.037 91.332 31.037 91.334 C 31.038 91.336 31.038 91.338 31.039 91.34 L 31.301 92.07 C 31.303 92.074 31.307 92.076 31.309 92.08 C 31.311 92.086 31.311 92.092 31.313 92.098 L 31.502 92.506 C 31.503 92.508 31.504 92.508 31.505 92.51 C 31.506 92.512 31.506 92.512 31.506 92.514 L 31.707 92.918 C 31.707 92.92 31.71 92.922 31.711 92.924 C 31.712 92.926 31.711 92.926 31.711 92.928 L 31.924 93.324 C 31.926 93.326 31.928 93.328 31.93 93.33 C 31.93 93.33 31.93 93.332 31.93 93.334 L 32.156 93.725 C 32.157 93.727 32.159 93.727 32.16 93.729 C 32.161 93.731 32.16 93.733 32.161 93.733 L 32.397 94.116 C 32.398 94.118 32.401 94.12 32.402 94.122 C 32.403 94.122 32.402 94.124 32.403 94.124 L 32.651 94.501 C 32.652 94.503 32.655 94.505 32.656 94.507 C 32.657 94.507 32.656 94.509 32.657 94.511 L 32.917 94.878 C 32.919 94.88 32.921 94.882 32.923 94.884 C 32.924 94.884 32.923 94.886 32.924 94.888 L 33.196 95.247 C 33.198 95.249 33.2 95.249 33.201 95.251 C 33.202 95.251 33.201 95.253 33.202 95.255 L 33.484 95.607 C 33.485 95.609 33.488 95.609 33.489 95.611 C 33.49 95.611 33.489 95.613 33.491 95.615 L 33.784 95.957 C 33.786 95.959 33.788 95.961 33.79 95.963 C 33.79 95.963 33.79 95.965 33.791 95.965 L 34.094 96.299 C 34.095 96.301 34.098 96.299 34.099 96.301 C 34.101 96.303 34.1 96.305 34.102 96.307 L 34.416 96.631 C 34.418 96.633 34.421 96.631 34.423 96.633 C 34.425 96.635 34.425 96.639 34.427 96.641 L 34.734 96.93 C 34.737 96.934 34.742 96.932 34.744 96.934 C 34.748 96.938 34.746 96.942 34.75 96.944 L 35.074 97.217 C 35.077 97.219 35.082 97.217 35.084 97.221 C 35.088 97.223 35.087 97.227 35.09 97.229 L 35.431 97.483 C 35.434 97.485 35.438 97.483 35.442 97.487 C 35.444 97.487 35.444 97.491 35.447 97.493 L 35.801 97.725 C 35.805 97.729 35.81 97.727 35.814 97.729 C 35.816 97.731 35.816 97.735 35.819 97.737 L 36.186 97.948 C 36.188 97.948 36.191 97.948 36.193 97.95 C 36.197 97.952 36.199 97.956 36.203 97.958 L 36.582 98.147 C 36.586 98.149 36.59 98.147 36.594 98.149 C 36.597 98.151 36.599 98.153 36.602 98.155 L 36.992 98.321 C 36.995 98.321 36.997 98.321 37 98.323 C 37.004 98.323 37.007 98.327 37.011 98.329 L 37.409 98.472 C 37.412 98.474 37.416 98.474 37.42 98.474 C 37.423 98.476 37.425 98.478 37.427 98.478 L 37.833 98.599 C 37.837 98.599 37.841 98.599 37.846 98.601 C 37.849 98.601 37.851 98.603 37.853 98.603 L 38.266 98.699 C 38.271 98.701 38.275 98.701 38.279 98.701 C 38.282 98.701 38.283 98.703 38.286 98.703 L 38.703 98.775 C 38.708 98.775 38.713 98.775 38.717 98.775 C 38.719 98.777 38.721 98.777 38.723 98.777 L 39.145 98.824 C 39.151 98.826 39.157 98.826 39.164 98.826 C 39.165 98.826 39.167 98.826 39.168 98.826 L 39.584 98.846 C 39.589 98.846 39.594 98.846 39.599 98.846 L 39.6 98.846 C 39.603 98.846 39.605 98.846 39.607 98.846 L 40.025 98.836 C 40.026 98.836 40.027 98.836 40.027 98.836 C 40.035 98.836 40.043 98.836 40.051 98.834 L 40.466 98.793 C 40.469 98.793 40.472 98.791 40.475 98.791 C 40.48 98.791 40.484 98.791 40.49 98.789 L 40.9 98.721 C 40.904 98.721 40.906 98.719 40.908 98.717 C 40.914 98.717 40.92 98.717 40.925 98.715 L 41.33 98.617 C 41.333 98.615 41.335 98.613 41.338 98.613 C 41.343 98.611 41.348 98.613 41.354 98.611 L 41.75 98.484 C 41.754 98.482 41.757 98.48 41.76 98.478 C 41.765 98.476 41.769 98.478 41.773 98.476 L 42.162 98.322 C 42.167 98.32 42.17 98.316 42.175 98.314 C 42.179 98.312 42.183 98.312 42.187 98.31 L 42.562 98.126 C 42.566 98.124 42.568 98.12 42.572 98.118 C 42.576 98.116 42.579 98.118 42.582 98.116 L 42.943 97.907 C 42.947 97.905 42.947 97.901 42.95 97.899 C 42.955 97.897 42.96 97.897 42.965 97.895 L 43.311 97.661 C 43.314 97.659 43.314 97.653 43.317 97.651 C 43.321 97.649 43.327 97.649 43.331 97.647 L 43.659 97.389 C 43.662 97.385 43.661 97.381 43.665 97.379 C 43.668 97.375 43.673 97.377 43.677 97.373 L 43.988 97.094 C 43.992 97.09 43.99 97.084 43.994 97.082 C 43.998 97.078 44.004 97.08 44.007 97.076 L 44.511 96.545 C 44.514 96.541 44.512 96.537 44.515 96.535 C 44.519 96.531 44.525 96.529 44.529 96.523 L 44.99 95.955 C 44.993 95.953 44.991 95.949 44.993 95.945 C 44.997 95.941 45.003 95.939 45.007 95.933 L 45.421 95.329 C 45.423 95.327 45.421 95.323 45.423 95.319 C 45.426 95.315 45.432 95.313 45.435 95.307 L 45.802 94.674 C 45.804 94.67 45.802 94.666 45.804 94.662 C 45.806 94.658 45.812 94.656 45.814 94.65 L 46.13 93.99 C 46.133 93.984 46.132 93.978 46.135 93.972 C 46.136 93.97 46.14 93.968 46.142 93.964 L 46.404 93.28 C 46.406 93.274 46.406 93.268 46.408 93.264 C 46.408 93.26 46.412 93.258 46.414 93.254 L 46.621 92.553 C 46.623 92.547 46.621 92.541 46.623 92.535 C 46.624 92.531 46.627 92.529 46.628 92.527 L 46.78 91.81 C 46.781 91.804 46.779 91.798 46.78 91.792 C 46.781 91.79 46.784 91.788 46.785 91.784 L 46.883 91.059 C 46.883 91.053 46.881 91.047 46.881 91.039 C 46.881 91.037 46.885 91.035 46.885 91.031 L 46.924 90.301 C 46.924 90.295 46.921 90.291 46.922 90.285 C 46.922 90.281 46.924 90.277 46.924 90.273 L 46.904 89.541 C 46.904 89.539 46.901 89.537 46.901 89.533 C 46.901 89.527 46.904 89.521 46.903 89.515 L 46.828 88.786 C 46.828 88.784 46.828 88.784 46.828 88.784 C 46.828 88.782 46.828 88.782 46.828 88.782 L 46.724 87.889 C 46.724 87.885 46.722 87.883 46.722 87.881 C 46.722 87.879 46.723 87.877 46.722 87.873 L 46.579 86.986 C 46.579 86.982 46.577 86.98 46.577 86.978 C 46.576 86.974 46.577 86.972 46.577 86.97 L 46.393 86.089 C 46.392 86.087 46.39 86.085 46.389 86.083 C 46.389 86.079 46.389 86.077 46.389 86.075 L 46.166 85.204 C 46.165 85.2 46.163 85.198 46.162 85.196 C 46.162 85.194 46.162 85.19 46.162 85.188 L 45.898 84.327 C 45.897 84.325 45.894 84.325 45.894 84.323 C 45.893 84.319 45.894 84.317 45.892 84.313 L 45.589 83.465 C 45.589 83.463 45.586 83.461 45.585 83.457 C 45.584 83.455 45.585 83.453 45.583 83.451 L 45.241 82.619 C 45.241 82.617 45.239 82.615 45.237 82.613 C 45.237 82.609 45.237 82.607 45.235 82.603 L 44.856 81.787 C 44.856 81.785 44.854 81.785 44.852 81.783 C 44.851 81.781 44.851 81.777 44.85 81.773 L 44.436 80.976 C 44.434 80.974 44.43 80.974 44.429 80.97 C 44.427 80.968 44.429 80.964 44.428 80.962 L 43.975 80.185 C 43.973 80.183 43.969 80.183 43.968 80.181 C 43.967 80.179 43.968 80.175 43.967 80.173 L 43.481 79.417 C 43.479 79.415 43.475 79.415 43.473 79.413 C 43.471 79.409 43.473 79.407 43.471 79.403 L 42.95 78.673 C 42.948 78.671 42.944 78.671 42.943 78.669 C 42.893 78.603 42.823 78.56 42.743 78.542 C 42.735 78.54 42.729 78.536 42.722 78.536 C 42.673 78.528 42.623 78.53 42.574 78.544 L 29.551 82.569 C 29.541 82.573 29.533 82.581 29.524 82.585 C 29.503 82.595 29.483 82.605 29.464 82.618 C 29.445 82.63 29.43 82.641 29.414 82.657 C 29.398 82.673 29.387 82.69 29.374 82.708 C 29.361 82.726 29.352 82.743 29.343 82.763 C 29.334 82.784 29.329 82.804 29.324 82.825 C 29.319 82.846 29.304 82.877 29.304 82.9 Z"
        fill="#000000"/>
    <path
        id="path_3"
        d="M 69.796 46.398 C 69.824 46.405 69.852 46.408 69.88 46.408 L 69.88 46.408 L 69.88 46.408 L 69.88 46.408 C 69.963 46.408 70.038 46.373 70.099 46.32 C 70.104 46.315 70.111 46.317 70.117 46.312 L 70.35 46.086 C 70.351 46.085 70.351 46.082 70.353 46.081 C 70.354 46.079 70.356 46.08 70.357 46.079 L 70.584 45.847 C 70.586 45.845 70.585 45.843 70.586 45.841 C 70.588 45.841 70.59 45.841 70.592 45.839 L 70.812 45.601 C 70.811 45.599 70.811 45.597 70.811 45.597 C 70.813 45.595 70.815 45.595 70.817 45.593 L 71.03 45.347 C 71.03 45.346 71.03 45.344 71.031 45.343 C 71.032 45.341 71.034 45.341 71.036 45.339 L 71.241 45.087 C 71.243 45.085 71.242 45.084 71.243 45.083 C 71.244 45.081 71.247 45.08 71.249 45.078 L 71.446 44.819 C 71.446 44.819 71.446 44.817 71.446 44.815 C 71.448 44.813 71.45 44.813 71.451 44.811 L 71.641 44.547 C 71.641 44.547 71.641 44.545 71.641 44.543 C 71.643 44.541 71.645 44.541 71.647 44.539 L 71.829 44.269 C 71.83 44.267 71.829 44.265 71.83 44.265 C 71.831 44.263 71.833 44.262 71.835 44.26 L 72.008 43.986 C 72.009 43.984 72.008 43.982 72.009 43.98 C 72.01 43.978 72.013 43.978 72.013 43.976 L 72.179 43.696 C 72.179 43.695 72.179 43.693 72.179 43.692 C 72.18 43.69 72.183 43.689 72.183 43.687 L 72.34 43.403 C 72.341 43.402 72.339 43.4 72.341 43.398 C 72.341 43.396 72.344 43.396 72.345 43.394 L 72.493 43.104 C 72.495 43.099 72.491 43.095 72.493 43.09 C 72.497 43.083 72.503 43.081 72.506 43.075 L 73.007 41.815 C 73.008 41.813 73.007 41.813 73.008 41.811 C 73.009 41.811 73.009 41.81 73.009 41.809 L 73.49 40.541 C 73.491 40.54 73.49 40.539 73.491 40.537 C 73.491 40.537 73.492 40.537 73.492 40.535 L 73.952 39.26 L 73.952 39.258 C 73.953 39.256 73.954 39.256 73.954 39.256 L 74.393 37.973 C 74.394 37.972 74.393 37.971 74.394 37.969 C 74.394 37.969 74.395 37.969 74.395 37.967 L 74.815 36.678 C 74.815 36.677 74.815 36.676 74.815 36.674 C 74.815 36.674 74.816 36.674 74.816 36.673 L 75.214 35.377 C 75.215 35.375 75.214 35.375 75.215 35.373 C 75.215 35.373 75.215 35.372 75.215 35.371 L 75.593 34.069 C 75.594 34.068 75.593 34.066 75.594 34.066 C 75.594 34.064 75.594 34.064 75.594 34.064 L 75.95 32.755 C 75.951 32.753 75.95 32.752 75.95 32.751 C 75.951 32.75 75.951 32.75 75.951 32.749 L 76.287 31.436 C 76.287 31.435 76.287 31.433 76.287 31.433 C 76.287 31.431 76.289 31.431 76.289 31.431 L 76.602 30.111 C 76.603 30.111 76.602 30.109 76.602 30.108 C 76.602 30.107 76.603 30.107 76.603 30.107 L 76.896 28.783 C 76.896 28.781 76.896 28.781 76.896 28.779 C 76.896 28.779 76.898 28.778 76.898 28.777 L 77.169 27.448 C 77.17 27.441 77.167 27.434 77.169 27.427 C 77.169 27.423 77.173 27.421 77.173 27.418 L 77.306 26.257 C 77.306 26.255 77.306 26.253 77.306 26.253 C 77.306 26.251 77.308 26.251 77.308 26.249 L 77.417 25.085 C 77.417 25.083 77.417 25.081 77.417 25.079 C 77.417 25.079 77.417 25.079 77.417 25.077 L 77.503 23.911 C 77.503 23.909 77.502 23.907 77.503 23.906 C 77.503 23.905 77.503 23.905 77.503 23.903 L 77.565 22.735 C 77.565 22.733 77.564 22.731 77.564 22.729 C 77.564 22.729 77.565 22.728 77.565 22.727 L 77.601 21.559 C 77.601 21.557 77.601 21.555 77.601 21.554 C 77.601 21.553 77.602 21.552 77.602 21.551 L 77.614 20.381 C 77.614 20.379 77.613 20.379 77.613 20.377 C 77.613 20.377 77.614 20.375 77.614 20.374 L 77.602 19.204 C 77.602 19.203 77.601 19.202 77.601 19.201 C 77.601 19.199 77.601 19.198 77.601 19.197 L 77.565 18.027 C 77.565 18.026 77.564 18.025 77.564 18.024 C 77.564 18.023 77.565 18.021 77.565 18.02 L 77.503 16.851 C 77.503 16.851 77.503 16.849 77.503 16.848 C 77.503 16.847 77.503 16.845 77.503 16.844 L 77.417 15.677 L 77.417 15.675 C 77.417 15.673 77.417 15.672 77.417 15.671 L 77.308 14.505 C 77.308 14.504 77.306 14.503 77.306 14.501 L 77.306 14.499 L 77.173 13.336 C 77.173 13.331 77.169 13.327 77.168 13.321 C 77.167 13.315 77.169 13.309 77.168 13.304 L 77.045 12.715 L 77.044 12.713 C 77.044 12.711 77.044 12.71 77.044 12.709 L 76.911 12.131 C 76.911 12.13 76.91 12.129 76.909 12.128 C 76.909 12.127 76.91 12.125 76.909 12.124 L 76.763 11.541 C 76.763 11.539 76.762 11.539 76.762 11.538 C 76.761 11.537 76.762 11.535 76.761 11.534 L 76.604 10.955 C 76.603 10.953 76.603 10.953 76.603 10.951 C 76.602 10.95 76.603 10.949 76.602 10.947 L 76.432 10.371 C 76.431 10.37 76.431 10.369 76.431 10.368 C 76.43 10.367 76.431 10.365 76.43 10.365 L 76.248 9.791 C 76.247 9.791 76.247 9.79 76.247 9.789 C 76.246 9.787 76.247 9.786 76.246 9.785 L 76.054 9.215 C 76.053 9.214 76.052 9.213 76.052 9.212 C 76.051 9.211 76.052 9.21 76.051 9.209 L 75.847 8.644 C 75.847 8.643 75.845 8.642 75.845 8.641 C 75.845 8.639 75.845 8.639 75.845 8.637 L 75.628 8.076 C 75.628 8.074 75.626 8.074 75.626 8.072 L 75.626 8.07 L 75.398 7.512 C 75.397 7.511 75.397 7.511 75.397 7.509 C 75.396 7.508 75.396 7.507 75.395 7.505 L 75.157 6.954 C 75.157 6.952 75.156 6.952 75.155 6.952 C 75.155 6.95 75.155 6.948 75.155 6.947 L 74.905 6.4 C 74.896 6.381 74.882 6.368 74.87 6.352 C 74.866 6.346 74.87 6.338 74.865 6.333 L 74.053 5.28 C 74.047 5.272 74.037 5.273 74.031 5.267 C 74.024 5.259 74.027 5.249 74.02 5.242 L 73.063 4.32 C 73.057 4.314 73.045 4.316 73.039 4.31 C 73.033 4.304 73.033 4.294 73.025 4.289 L 71.942 3.519 C 71.934 3.514 71.924 3.519 71.917 3.513 C 71.909 3.509 71.909 3.497 71.899 3.493 L 70.715 2.889 C 70.711 2.886 70.705 2.889 70.7 2.887 C 70.689 2.882 70.681 2.873 70.67 2.869 L 69.411 2.448 C 69.403 2.445 69.394 2.447 69.386 2.445 C 69.378 2.443 69.371 2.437 69.363 2.435 L 68.054 2.203 C 68.048 2.201 68.044 2.207 68.039 2.206 C 68.026 2.204 68.017 2.198 68.004 2.197 L 66.677 2.16 C 66.673 2.159 66.669 2.159 66.667 2.159 C 66.661 2.159 66.659 2.164 66.654 2.164 C 66.644 2.164 66.635 2.16 66.626 2.162 L 65.307 2.319 C 65.298 2.32 65.291 2.326 65.283 2.328 C 65.275 2.329 65.266 2.326 65.258 2.329 L 63.977 2.68 C 63.969 2.682 63.963 2.688 63.955 2.691 C 63.947 2.694 63.938 2.693 63.931 2.696 L 62.714 3.231 C 62.702 3.237 62.695 3.246 62.685 3.252 C 62.681 3.254 62.675 3.251 62.67 3.254 L 61.546 3.962 C 61.537 3.967 61.538 3.979 61.53 3.983 C 61.522 3.987 61.511 3.985 61.503 3.992 L 60.495 4.857 C 60.488 4.863 60.489 4.873 60.483 4.878 C 60.477 4.883 60.468 4.882 60.462 4.888 L 59.924 5.49 C 59.922 5.492 59.923 5.495 59.921 5.497 C 59.919 5.499 59.916 5.498 59.914 5.5 L 59.399 6.123 C 59.398 6.125 59.398 6.127 59.397 6.129 C 59.395 6.131 59.392 6.131 59.39 6.133 L 58.9 6.776 C 58.899 6.778 58.9 6.78 58.899 6.782 C 58.897 6.784 58.894 6.784 58.892 6.786 L 58.427 7.446 C 58.425 7.448 58.427 7.45 58.425 7.453 C 58.424 7.455 58.421 7.455 58.419 7.457 L 57.981 8.133 C 57.98 8.135 57.981 8.139 57.98 8.141 C 57.979 8.143 57.975 8.143 57.974 8.145 L 57.561 8.839 C 57.559 8.84 57.561 8.842 57.56 8.844 C 57.559 8.846 57.555 8.848 57.554 8.85 L 57.168 9.561 C 57.167 9.562 57.168 9.563 57.168 9.565 C 57.166 9.567 57.164 9.569 57.162 9.572 L 56.803 10.296 C 56.803 10.298 56.803 10.3 56.802 10.302 C 56.801 10.305 56.799 10.306 56.797 10.308 L 56.467 11.046 C 56.467 11.048 56.467 11.05 56.466 11.053 C 56.465 11.055 56.463 11.056 56.463 11.058 L 56.16 11.807 C 56.16 11.809 56.16 11.811 56.16 11.813 C 56.158 11.816 56.156 11.817 56.156 11.82 L 55.883 12.58 C 55.883 12.582 55.883 12.585 55.883 12.588 C 55.882 12.59 55.88 12.591 55.879 12.593 L 55.637 13.364 C 55.637 13.365 55.637 13.366 55.637 13.368 C 55.636 13.37 55.635 13.37 55.634 13.372 L 55.403 14.181 L 55.403 14.183 C 55.403 14.184 55.402 14.185 55.402 14.185 L 55.182 14.996 L 55.182 14.998 C 55.181 15 55.18 15 55.18 15.001 L 54.971 15.814 C 54.971 15.816 54.971 15.816 54.971 15.817 C 54.971 15.818 54.97 15.818 54.97 15.819 L 54.772 16.635 C 54.772 16.636 54.772 16.637 54.772 16.638 C 54.772 16.639 54.771 16.64 54.771 16.64 L 54.584 17.459 C 54.584 17.46 54.584 17.46 54.584 17.462 C 54.584 17.462 54.584 17.462 54.584 17.464 L 54.408 18.285 C 54.408 18.286 54.408 18.286 54.408 18.287 C 54.408 18.288 54.407 18.288 54.407 18.29 L 54.244 19.114 C 54.244 19.114 54.244 19.115 54.244 19.116 C 54.244 19.117 54.242 19.118 54.242 19.118 L 54.091 19.944 C 54.091 19.944 54.091 19.945 54.091 19.946 C 54.091 19.947 54.09 19.948 54.09 19.948 L 53.949 20.777 C 53.949 20.778 53.949 20.78 53.949 20.78 C 53.949 20.781 53.949 20.782 53.949 20.782 L 53.819 21.612 C 53.819 21.613 53.819 21.614 53.819 21.614 C 53.819 21.616 53.818 21.616 53.818 21.616 L 53.701 22.448 C 53.701 22.45 53.701 22.45 53.701 22.452 C 53.701 22.452 53.7 22.452 53.7 22.454 L 53.594 23.287 C 53.594 23.289 53.595 23.291 53.595 23.293 C 53.595 23.294 53.594 23.296 53.594 23.298 L 53.526 24.007 C 53.525 24.009 53.526 24.012 53.526 24.015 C 53.526 24.018 53.524 24.021 53.524 24.023 L 53.489 24.735 C 53.489 24.738 53.491 24.74 53.491 24.743 C 53.491 24.746 53.489 24.748 53.489 24.752 L 53.487 25.465 C 53.487 25.468 53.489 25.471 53.489 25.473 C 53.489 25.477 53.488 25.479 53.488 25.481 L 53.52 26.194 C 53.52 26.196 53.522 26.196 53.522 26.198 C 53.522 26.202 53.52 26.206 53.521 26.21 L 53.586 26.919 C 53.586 26.921 53.589 26.922 53.589 26.925 C 53.59 26.928 53.588 26.931 53.588 26.935 L 53.688 27.641 C 53.688 27.643 53.69 27.644 53.69 27.646 C 53.691 27.65 53.689 27.654 53.69 27.658 L 53.823 28.358 C 53.823 28.36 53.825 28.361 53.825 28.363 C 53.827 28.367 53.825 28.371 53.826 28.374 L 53.991 29.067 C 53.991 29.07 53.994 29.07 53.995 29.072 C 53.995 29.076 53.995 29.08 53.995 29.083 L 54.193 29.768 C 54.194 29.77 54.196 29.771 54.196 29.773 C 54.197 29.776 54.196 29.78 54.198 29.784 L 54.427 30.459 C 54.429 30.462 54.431 30.462 54.432 30.464 C 54.433 30.468 54.432 30.472 54.433 30.474 L 54.695 31.138 C 54.696 31.14 54.698 31.14 54.699 31.142 C 54.7 31.146 54.699 31.149 54.701 31.152 L 55.382 32.672 L 55.721 33.539 L 56.021 34.435 L 56.276 35.342 L 56.483 36.25 L 56.648 37.18 L 56.765 38.106 L 56.838 39.055 L 56.863 39.987 L 56.843 40.92 L 56.778 41.86 L 56.664 42.803 C 56.662 42.819 56.668 42.834 56.668 42.85 C 56.669 42.871 56.669 42.894 56.674 42.916 C 56.679 42.937 56.688 42.957 56.695 42.977 C 56.705 42.997 56.713 43.016 56.724 43.034 C 56.737 43.053 56.751 43.067 56.767 43.083 C 56.783 43.099 56.798 43.112 56.816 43.125 C 56.836 43.138 56.855 43.146 56.877 43.153 C 56.893 43.159 56.904 43.17 56.92 43.174 Z"
        fill="#000000"/>
    <path
        id="path_4"
        d="M 51.473 58.992 C 51.473 58.997 51.475 59 51.475 59.005 C 51.475 59.01 51.472 59.014 51.473 59.02 L 51.512 59.75 C 51.512 59.754 51.515 59.755 51.516 59.758 C 51.516 59.765 51.513 59.771 51.514 59.778 L 51.61 60.503 C 51.611 60.507 51.614 60.509 51.615 60.513 C 51.616 60.519 51.614 60.524 51.616 60.53 L 51.768 61.246 C 51.768 61.249 51.772 61.25 51.773 61.254 C 51.774 61.26 51.772 61.266 51.774 61.273 L 51.983 61.974 C 51.984 61.977 51.988 61.979 51.989 61.983 C 51.991 61.989 51.99 61.994 51.992 61.999 L 52.255 62.683 C 52.257 62.687 52.26 62.689 52.261 62.692 C 52.264 62.697 52.263 62.703 52.266 62.709 L 52.581 63.369 C 52.584 63.375 52.59 63.377 52.593 63.381 C 52.595 63.385 52.592 63.389 52.594 63.393 L 52.96 64.028 C 52.963 64.033 52.969 64.034 52.972 64.04 C 52.975 64.044 52.972 64.048 52.975 64.052 L 53.39 64.654 C 53.394 64.658 53.4 64.66 53.403 64.664 C 53.406 64.668 53.404 64.672 53.406 64.674 L 53.867 65.244 C 53.871 65.25 53.877 65.252 53.882 65.256 C 53.885 65.259 53.883 65.263 53.885 65.266 L 54.389 65.795 C 54.393 65.798 54.399 65.797 54.402 65.8 C 54.405 65.803 54.404 65.809 54.408 65.813 L 54.718 66.094 C 54.722 66.097 54.728 66.096 54.731 66.098 C 54.735 66.102 54.734 66.108 54.738 66.11 L 55.066 66.366 C 55.07 66.37 55.075 66.368 55.079 66.37 C 55.082 66.373 55.082 66.378 55.085 66.38 L 55.431 66.614 C 55.436 66.617 55.442 66.616 55.446 66.618 C 55.45 66.621 55.45 66.626 55.453 66.628 L 55.815 66.835 C 55.817 66.837 55.821 66.837 55.825 66.839 C 55.829 66.841 55.831 66.845 55.835 66.847 L 56.211 67.029 C 56.214 67.031 56.219 67.031 56.222 67.032 C 56.227 67.034 56.23 67.038 56.234 67.04 L 56.622 67.194 C 56.626 67.195 56.631 67.195 56.635 67.197 C 56.638 67.197 56.641 67.201 56.645 67.202 L 57.041 67.33 C 57.046 67.332 57.051 67.331 57.055 67.332 C 57.059 67.334 57.061 67.336 57.065 67.337 L 57.471 67.436 C 57.476 67.438 57.481 67.437 57.487 67.438 C 57.49 67.438 57.492 67.44 57.495 67.441 L 57.907 67.51 C 57.913 67.511 57.92 67.511 57.927 67.512 C 57.929 67.512 57.929 67.513 57.931 67.513 L 58.346 67.553 C 58.357 67.555 58.368 67.555 58.379 67.555 L 58.38 67.555 L 58.788 67.565 C 58.79 67.565 58.793 67.565 58.796 67.565 L 58.796 67.565 L 58.796 67.565 L 58.796 67.565 L 58.796 67.565 C 58.801 67.565 58.806 67.565 58.81 67.565 L 59.228 67.547 C 59.228 67.547 59.229 67.546 59.23 67.546 C 59.237 67.545 59.244 67.545 59.251 67.545 L 59.671 67.498 C 59.673 67.498 59.675 67.496 59.676 67.496 C 59.681 67.496 59.687 67.496 59.693 67.494 L 60.11 67.422 C 60.112 67.422 60.113 67.421 60.115 67.42 C 60.119 67.42 60.124 67.42 60.129 67.419 L 60.541 67.323 C 60.545 67.322 60.547 67.32 60.55 67.319 C 60.553 67.318 60.557 67.318 60.561 67.318 L 60.967 67.199 C 60.97 67.197 60.973 67.195 60.975 67.194 C 60.979 67.193 60.983 67.193 60.987 67.192 L 61.385 67.048 C 61.389 67.047 61.391 67.044 61.393 67.042 C 61.397 67.042 61.401 67.042 61.405 67.04 L 61.794 66.874 C 61.798 66.872 61.799 66.869 61.802 66.868 C 61.806 66.866 61.808 66.867 61.812 66.866 L 62.191 66.677 C 62.195 66.675 62.197 66.672 62.201 66.67 C 62.203 66.669 62.207 66.669 62.209 66.667 L 62.576 66.456 C 62.579 66.455 62.579 66.451 62.582 66.449 C 62.586 66.447 62.59 66.448 62.594 66.446 L 62.948 66.214 C 62.951 66.212 62.95 66.208 62.953 66.206 C 62.957 66.204 62.962 66.204 62.965 66.202 L 63.305 65.949 C 63.308 65.947 63.308 65.942 63.31 65.94 C 63.314 65.938 63.318 65.939 63.32 65.936 L 63.645 65.665 C 63.648 65.663 63.647 65.659 63.65 65.655 C 63.653 65.653 63.658 65.655 63.66 65.651 L 63.969 65.36 C 63.971 65.358 63.97 65.355 63.973 65.353 C 63.975 65.35 63.979 65.352 63.981 65.35 L 64.293 65.026 C 64.295 65.024 64.294 65.022 64.295 65.02 C 64.297 65.019 64.299 65.02 64.3 65.018 L 64.604 64.686 C 64.604 64.686 64.604 64.684 64.605 64.682 C 64.606 64.68 64.609 64.68 64.611 64.678 L 64.904 64.336 C 64.905 64.335 64.905 64.333 64.905 64.332 C 64.907 64.33 64.909 64.33 64.911 64.328 L 65.193 63.976 C 65.194 63.974 65.193 63.972 65.194 63.972 C 65.196 63.97 65.198 63.968 65.2 63.966 L 65.471 63.605 C 65.472 63.605 65.471 63.603 65.472 63.602 C 65.473 63.601 65.475 63.599 65.477 63.598 L 65.737 63.231 C 65.738 63.23 65.737 63.228 65.738 63.227 C 65.739 63.225 65.742 63.224 65.743 63.222 L 65.992 62.847 C 65.993 62.845 65.992 62.843 65.993 62.843 C 65.994 62.841 65.997 62.839 65.998 62.837 L 66.235 62.454 C 66.235 62.452 66.235 62.45 66.235 62.448 C 66.237 62.447 66.239 62.446 66.239 62.444 L 66.465 62.055 C 66.466 62.053 66.465 62.051 66.466 62.05 C 66.467 62.048 66.47 62.047 66.47 62.045 L 66.684 61.647 C 66.685 61.645 66.683 61.644 66.685 61.643 C 66.685 61.641 66.688 61.639 66.689 61.637 L 66.889 61.235 C 66.89 61.233 66.89 61.231 66.891 61.229 C 66.892 61.227 66.893 61.227 66.894 61.225 L 67.082 60.815 C 67.084 60.81 67.084 60.803 67.086 60.798 C 67.088 60.794 67.092 60.793 67.093 60.789 L 67.356 60.06 C 67.357 60.058 67.356 60.056 67.357 60.055 C 67.358 60.054 67.359 60.054 67.36 60.052 L 67.606 59.318 C 67.606 59.316 67.606 59.314 67.606 59.312 C 67.606 59.312 67.608 59.311 67.608 59.31 L 67.837 58.569 C 67.837 58.567 67.837 58.566 67.837 58.564 C 67.837 58.562 67.838 58.562 67.839 58.562 L 68.05 57.816 C 68.05 57.814 68.05 57.813 68.05 57.811 C 68.05 57.81 68.052 57.81 68.052 57.808 L 68.244 57.058 C 68.245 57.056 68.244 57.054 68.244 57.052 C 68.245 57.052 68.246 57.051 68.246 57.05 L 68.421 56.295 C 68.421 56.293 68.421 56.291 68.421 56.289 C 68.421 56.288 68.423 56.288 68.423 56.287 L 68.579 55.528 C 68.579 55.526 68.579 55.524 68.579 55.522 C 68.579 55.521 68.581 55.52 68.581 55.52 L 68.719 54.756 C 68.72 54.755 68.718 54.754 68.719 54.752 C 68.719 54.75 68.72 54.75 68.72 54.749 L 68.841 53.984 C 68.841 53.982 68.841 53.98 68.841 53.978 C 68.841 53.978 68.843 53.977 68.843 53.976 L 68.945 53.208 C 68.945 53.206 68.945 53.204 68.945 53.202 C 68.945 53.2 68.946 53.2 68.946 53.199 L 69.029 52.429 C 69.03 52.427 69.029 52.425 69.029 52.423 C 69.029 52.422 69.03 52.422 69.03 52.421 L 69.095 51.648 C 69.097 51.637 69.092 51.627 69.092 51.618 C 69.092 51.595 69.089 51.572 69.084 51.55 C 69.079 51.529 69.073 51.509 69.065 51.488 C 69.057 51.467 69.045 51.45 69.034 51.432 C 69.023 51.414 69.01 51.397 68.994 51.381 C 68.978 51.365 68.962 51.354 68.944 51.341 C 68.924 51.328 68.907 51.319 68.885 51.309 C 68.875 51.305 68.867 51.297 68.856 51.293 L 55.821 47.267 C 55.77 47.251 55.719 47.251 55.671 47.259 C 55.665 47.259 55.661 47.262 55.655 47.263 C 55.573 47.28 55.501 47.324 55.451 47.392 C 55.449 47.394 55.446 47.393 55.444 47.396 L 54.923 48.128 C 54.921 48.13 54.922 48.134 54.921 48.136 C 54.919 48.138 54.915 48.138 54.913 48.141 L 54.427 48.897 C 54.425 48.9 54.427 48.903 54.425 48.906 C 54.423 48.908 54.42 48.908 54.419 48.91 L 53.966 49.687 C 53.966 49.689 53.966 49.691 53.966 49.693 C 53.964 49.696 53.96 49.698 53.958 49.701 L 53.542 50.498 C 53.541 50.501 53.542 50.504 53.54 50.506 C 53.539 50.508 53.536 50.51 53.536 50.512 L 53.157 51.326 C 53.155 51.329 53.155 51.332 53.155 51.334 C 53.153 51.338 53.151 51.339 53.15 51.342 L 52.809 52.174 C 52.807 52.178 52.808 52.18 52.807 52.183 C 52.806 52.186 52.804 52.187 52.803 52.19 L 52.5 53.036 C 52.5 53.039 52.5 53.042 52.5 53.044 C 52.498 53.047 52.496 53.049 52.496 53.052 L 52.232 53.911 C 52.231 53.913 52.232 53.915 52.231 53.919 C 52.23 53.921 52.228 53.923 52.228 53.926 L 52.004 54.797 C 52.003 54.8 52.004 54.802 52.003 54.805 C 52.003 54.808 52.001 54.81 52.001 54.812 L 51.816 55.693 C 51.815 55.697 51.817 55.699 51.816 55.701 C 51.815 55.705 51.813 55.707 51.813 55.709 L 51.67 56.596 C 51.67 56.6 51.671 56.602 51.671 56.605 C 51.67 56.608 51.669 56.61 51.668 56.612 L 51.566 57.507 C 51.566 57.507 51.566 57.508 51.566 57.509 C 51.566 57.509 51.566 57.509 51.566 57.511 L 51.49 58.238 C 51.49 58.244 51.492 58.25 51.492 58.257 C 51.492 58.26 51.488 58.262 51.488 58.264 Z"
        fill="#000000"/>
    <path
        id="path_5"
        d="M 20.766 51.666 C 20.766 51.666 20.766 51.668 20.766 51.669 L 20.778 52.839 C 20.778 52.84 20.779 52.841 20.779 52.842 C 20.779 52.844 20.778 52.845 20.778 52.846 L 20.815 54.016 C 20.815 54.017 20.816 54.018 20.816 54.018 C 20.817 54.02 20.815 54.022 20.815 54.024 L 20.876 55.192 C 20.876 55.192 20.878 55.193 20.878 55.194 C 20.878 55.196 20.877 55.198 20.877 55.199 L 20.963 56.366 C 20.963 56.367 20.964 56.368 20.964 56.368 C 20.964 56.37 20.964 56.372 20.964 56.373 L 21.073 57.537 C 21.073 57.538 21.074 57.538 21.074 57.54 C 21.074 57.542 21.073 57.542 21.073 57.544 L 21.206 58.707 C 21.207 58.711 21.211 58.712 21.212 58.716 C 21.212 58.724 21.21 58.73 21.212 58.737 L 21.483 60.065 C 21.483 60.065 21.485 60.065 21.485 60.066 C 21.485 60.067 21.484 60.069 21.485 60.069 L 21.776 61.393 C 21.776 61.394 21.777 61.395 21.778 61.395 C 21.778 61.397 21.777 61.398 21.778 61.399 L 22.092 62.717 C 22.092 62.719 22.092 62.719 22.093 62.719 C 22.093 62.721 22.093 62.721 22.093 62.723 L 22.428 64.037 C 22.428 64.037 22.429 64.037 22.429 64.039 C 22.43 64.039 22.429 64.041 22.43 64.042 L 22.785 65.35 C 22.785 65.35 22.787 65.351 22.787 65.352 C 22.787 65.353 22.787 65.354 22.787 65.356 L 23.164 66.657 C 23.164 66.658 23.165 66.659 23.165 66.659 C 23.166 66.661 23.165 66.661 23.166 66.663 L 23.564 67.96 C 23.564 67.961 23.565 67.962 23.565 67.962 C 23.566 67.964 23.565 67.964 23.566 67.966 L 23.986 69.255 L 23.986 69.255 C 23.987 69.257 23.986 69.259 23.987 69.259 L 24.426 70.542 C 24.427 70.544 24.427 70.544 24.427 70.544 C 24.428 70.546 24.427 70.546 24.428 70.548 L 24.888 71.823 C 24.888 71.823 24.889 71.823 24.89 71.825 C 24.89 71.825 24.89 71.827 24.89 71.829 L 25.371 73.097 C 25.372 73.097 25.372 73.097 25.372 73.099 C 25.373 73.099 25.372 73.101 25.373 73.101 L 25.875 74.361 C 25.876 74.365 25.88 74.367 25.882 74.371 C 25.885 74.377 25.884 74.383 25.888 74.389 L 26.034 74.68 C 26.035 74.682 26.038 74.684 26.04 74.686 C 26.04 74.688 26.039 74.69 26.04 74.692 L 26.198 74.977 C 26.199 74.979 26.2 74.979 26.202 74.981 L 26.202 74.983 L 26.366 75.262 C 26.368 75.264 26.37 75.266 26.371 75.268 C 26.372 75.27 26.371 75.272 26.372 75.272 L 26.546 75.547 C 26.547 75.549 26.549 75.549 26.55 75.551 C 26.551 75.551 26.55 75.553 26.551 75.555 L 26.732 75.825 C 26.734 75.827 26.736 75.827 26.738 75.829 C 26.738 75.831 26.738 75.833 26.738 75.833 L 26.929 76.099 C 26.93 76.101 26.933 76.103 26.934 76.105 C 26.935 76.105 26.934 76.107 26.935 76.109 L 27.132 76.367 C 27.134 76.369 27.136 76.369 27.138 76.371 C 27.138 76.373 27.138 76.373 27.138 76.375 L 27.343 76.627 C 27.345 76.629 27.347 76.629 27.349 76.631 C 27.35 76.633 27.349 76.633 27.351 76.635 L 27.564 76.879 C 27.565 76.881 27.568 76.881 27.569 76.883 C 27.57 76.885 27.57 76.887 27.57 76.887 L 27.791 77.127 C 27.793 77.127 27.795 77.127 27.796 77.129 C 27.797 77.129 27.797 77.133 27.798 77.133 L 28.025 77.365 C 28.026 77.367 28.029 77.367 28.03 77.367 C 28.032 77.369 28.031 77.371 28.032 77.373 L 28.266 77.6 C 28.271 77.604 28.278 77.602 28.284 77.606 C 28.345 77.661 28.419 77.696 28.503 77.696 L 28.503 77.696 L 28.503 77.696 L 28.503 77.696 C 28.531 77.696 28.559 77.692 28.587 77.686 L 41.464 74.452 C 41.48 74.448 41.491 74.436 41.506 74.431 C 41.527 74.423 41.548 74.415 41.566 74.404 C 41.586 74.39 41.6 74.377 41.617 74.361 C 41.632 74.345 41.646 74.332 41.658 74.314 C 41.671 74.294 41.679 74.275 41.688 74.255 C 41.697 74.235 41.705 74.216 41.709 74.194 C 41.713 74.172 41.714 74.151 41.714 74.128 C 41.715 74.112 41.72 74.097 41.718 74.081 L 41.605 73.138 L 41.539 72.199 L 41.519 71.267 L 41.544 70.335 L 41.618 69.384 L 41.736 68.456 L 41.899 67.532 L 42.106 66.624 L 42.363 65.712 L 42.663 64.819 L 43.001 63.95 L 43.681 62.432 C 43.683 62.428 43.683 62.425 43.684 62.422 C 43.685 62.42 43.687 62.419 43.687 62.417 L 43.949 61.753 C 43.951 61.75 43.95 61.746 43.951 61.743 C 43.952 61.741 43.955 61.74 43.955 61.738 L 44.185 61.063 C 44.186 61.06 44.185 61.056 44.187 61.052 C 44.187 61.05 44.19 61.049 44.191 61.046 L 44.386 60.362 C 44.388 60.358 44.386 60.354 44.388 60.351 C 44.388 60.349 44.39 60.348 44.39 60.346 L 44.556 59.653 C 44.556 59.649 44.555 59.645 44.556 59.642 C 44.556 59.64 44.558 59.639 44.558 59.637 L 44.691 58.938 C 44.692 58.934 44.691 58.93 44.691 58.926 C 44.692 58.924 44.694 58.923 44.695 58.92 L 44.793 58.215 C 44.794 58.211 44.793 58.207 44.793 58.204 C 44.793 58.201 44.795 58.201 44.795 58.199 L 44.861 57.488 C 44.861 57.484 44.859 57.482 44.859 57.478 C 44.859 57.476 44.861 57.474 44.861 57.472 L 44.894 56.761 C 44.894 56.757 44.893 56.755 44.893 56.753 C 44.894 56.749 44.895 56.747 44.895 56.743 L 44.893 56.03 C 44.893 56.028 44.892 56.025 44.892 56.022 C 44.891 56.02 44.892 56.018 44.892 56.014 L 44.857 55.303 C 44.857 55.301 44.855 55.299 44.855 55.295 C 44.855 55.293 44.856 55.29 44.856 55.287 L 44.788 54.576 C 44.788 54.574 44.787 54.573 44.787 54.572 C 44.787 54.57 44.787 54.568 44.787 54.566 L 44.682 53.732 C 44.682 53.732 44.682 53.731 44.682 53.73 C 44.681 53.73 44.682 53.728 44.682 53.728 L 44.563 52.894 C 44.563 52.894 44.563 52.894 44.563 52.892 C 44.562 52.892 44.563 52.892 44.563 52.89 L 44.434 52.062 C 44.434 52.061 44.434 52.06 44.434 52.06 C 44.434 52.058 44.434 52.058 44.434 52.056 L 44.293 51.229 C 44.293 51.228 44.292 51.228 44.292 51.226 L 44.292 51.224 L 44.139 50.396 C 44.139 50.396 44.138 50.395 44.138 50.394 C 44.138 50.394 44.138 50.393 44.138 50.392 L 43.975 49.569 C 43.975 49.568 43.974 49.568 43.974 49.566 L 43.974 49.564 L 43.798 48.742 C 43.798 48.741 43.797 48.74 43.797 48.74 C 43.797 48.739 43.797 48.738 43.797 48.738 L 43.611 47.92 C 43.611 47.918 43.611 47.918 43.61 47.918 C 43.61 47.916 43.611 47.915 43.61 47.914 L 43.411 47.098 C 43.411 47.096 43.41 47.096 43.41 47.096 C 43.41 47.095 43.41 47.094 43.41 47.094 L 43.203 46.281 C 43.203 46.28 43.202 46.28 43.201 46.278 C 43.201 46.278 43.202 46.276 43.201 46.276 L 42.98 45.464 C 42.98 45.463 42.98 45.463 42.98 45.463 C 42.98 45.461 42.98 45.461 42.98 45.459 L 42.748 44.652 C 42.748 44.65 42.746 44.649 42.746 44.647 C 42.746 44.646 42.746 44.644 42.746 44.643 L 42.502 43.872 C 42.502 43.87 42.5 43.868 42.5 43.866 C 42.499 43.864 42.5 43.862 42.498 43.86 L 42.227 43.099 C 42.225 43.096 42.223 43.095 42.223 43.092 C 42.222 43.09 42.223 43.088 42.221 43.086 L 41.92 42.337 C 41.918 42.335 41.917 42.334 41.916 42.332 C 41.915 42.33 41.916 42.327 41.914 42.324 L 41.584 41.588 C 41.584 41.586 41.582 41.586 41.581 41.584 C 41.58 41.582 41.58 41.578 41.578 41.576 L 41.221 40.851 C 41.219 40.848 41.217 40.847 41.215 40.844 C 41.214 40.843 41.215 40.841 41.215 40.839 L 40.828 40.13 C 40.827 40.128 40.824 40.128 40.822 40.125 C 40.821 40.123 40.823 40.12 40.822 40.118 L 40.408 39.424 C 40.406 39.421 40.403 39.42 40.401 39.417 C 40.4 39.416 40.402 39.415 40.4 39.413 L 39.961 38.735 C 39.96 38.733 39.957 38.733 39.955 38.731 C 39.954 38.729 39.955 38.727 39.954 38.725 L 39.488 38.064 C 39.486 38.062 39.484 38.063 39.482 38.06 C 39.48 38.058 39.482 38.055 39.48 38.053 L 38.99 37.412 C 38.988 37.41 38.986 37.41 38.984 37.408 C 38.982 37.406 38.984 37.403 38.982 37.401 L 38.467 36.779 C 38.466 36.777 38.462 36.777 38.46 36.775 C 38.458 36.773 38.46 36.77 38.458 36.768 L 37.919 36.165 C 37.913 36.159 37.903 36.161 37.898 36.155 C 37.893 36.149 37.894 36.139 37.888 36.134 L 36.88 35.269 C 36.872 35.263 36.862 35.267 36.855 35.261 C 36.848 35.255 36.847 35.244 36.839 35.24 L 35.714 34.533 C 35.71 34.529 35.704 34.533 35.699 34.53 C 35.688 34.523 35.68 34.513 35.669 34.509 L 34.452 33.974 C 34.448 33.972 34.443 33.975 34.438 33.974 C 34.426 33.968 34.417 33.96 34.405 33.956 L 33.124 33.606 C 33.116 33.604 33.108 33.606 33.1 33.604 C 33.092 33.602 33.083 33.597 33.076 33.596 L 31.756 33.439 C 31.742 33.438 31.732 33.442 31.719 33.442 C 31.713 33.442 31.711 33.437 31.705 33.437 L 30.379 33.475 C 30.367 33.475 30.357 33.481 30.344 33.483 C 30.339 33.483 30.335 33.479 30.33 33.479 L 29.019 33.712 C 29.011 33.713 29.003 33.719 28.996 33.722 C 28.987 33.724 28.979 33.722 28.971 33.725 L 27.713 34.148 C 27.701 34.152 27.692 34.161 27.682 34.167 C 27.677 34.169 27.672 34.165 27.666 34.167 L 26.482 34.771 C 26.474 34.776 26.473 34.787 26.464 34.792 C 26.456 34.796 26.446 34.792 26.439 34.798 L 25.357 35.569 C 25.349 35.574 25.351 35.586 25.343 35.591 C 25.336 35.597 25.325 35.593 25.319 35.601 L 24.362 36.523 C 24.355 36.529 24.357 36.54 24.351 36.546 C 24.345 36.554 24.333 36.552 24.328 36.56 L 23.517 37.613 C 23.509 37.625 23.514 37.639 23.507 37.652 C 23.499 37.664 23.484 37.666 23.478 37.679 L 23.228 38.226 C 23.226 38.228 23.227 38.229 23.226 38.231 C 23.226 38.232 23.225 38.232 23.224 38.232 L 22.986 38.785 C 22.986 38.787 22.986 38.787 22.986 38.789 C 22.986 38.79 22.984 38.791 22.984 38.791 L 22.757 39.348 C 22.757 39.349 22.757 39.35 22.757 39.351 C 22.756 39.352 22.755 39.353 22.755 39.354 L 22.538 39.915 C 22.537 39.917 22.537 39.919 22.537 39.919 C 22.536 39.921 22.535 39.922 22.534 39.923 L 22.331 40.489 C 22.331 40.49 22.331 40.491 22.331 40.491 C 22.331 40.493 22.33 40.493 22.329 40.495 L 22.136 41.063 C 22.136 41.065 22.136 41.067 22.136 41.068 C 22.136 41.069 22.135 41.069 22.134 41.071 L 21.952 41.643 C 21.952 41.645 21.952 41.645 21.952 41.647 C 21.952 41.648 21.951 41.649 21.95 41.65 L 21.78 42.227 C 21.78 42.227 21.78 42.229 21.78 42.23 C 21.78 42.231 21.779 42.233 21.778 42.233 L 21.62 42.813 C 21.62 42.815 21.62 42.815 21.62 42.817 C 21.62 42.817 21.619 42.819 21.618 42.82 L 21.472 43.403 C 21.472 43.405 21.472 43.405 21.472 43.407 C 21.472 43.408 21.471 43.409 21.471 43.41 L 21.336 43.996 C 21.335 43.997 21.336 43.999 21.336 43.999 C 21.335 44.001 21.335 44.002 21.335 44.003 L 21.212 44.592 C 21.21 44.597 21.212 44.603 21.212 44.609 C 21.21 44.614 21.207 44.618 21.206 44.623 L 21.073 45.785 C 21.073 45.787 21.074 45.787 21.074 45.789 C 21.073 45.79 21.073 45.791 21.073 45.793 L 20.964 46.959 C 20.964 46.961 20.964 46.961 20.964 46.963 C 20.964 46.964 20.963 46.965 20.963 46.966 L 20.877 48.133 C 20.877 48.135 20.878 48.135 20.878 48.137 C 20.878 48.139 20.876 48.139 20.876 48.141 L 20.815 49.309 C 20.815 49.311 20.816 49.312 20.816 49.313 C 20.816 49.315 20.815 49.315 20.815 49.316 L 20.778 50.485 C 20.778 50.487 20.779 50.489 20.779 50.49 C 20.779 50.491 20.778 50.492 20.778 50.493 L 20.766 51.663 C 20.766 51.664 20.766 51.664 20.766 51.666 Z"
        fill="#000000"/>
</svg>
